<?xml version="1.0" encoding="utf-8"?>
<!-- Generator: Adobe Illustrator 16.0.0, SVG Export Plug-In . SVG Version: 6.00 Build 0)  -->
<!DOCTYPE svg PUBLIC "-//W3C//DTD SVG 1.1//EN" "http://www.w3.org/Graphics/SVG/1.1/DTD/svg11.dtd">
<svg version="1.1" id="Layer_1" xmlns="http://www.w3.org/2000/svg" xmlns:xlink="http://www.w3.org/1999/xlink" x="0px" y="0px"
	 width="51px" height="24px" viewBox="0 0 51 24" enable-background="new 0 0 51 24" xml:space="preserve">
<path d="M1.568,3.47C1.233,3.135,1.065,2.724,1.065,2.237c0-0.487,0.168-0.898,0.503-1.233C1.903,0.668,2.314,0.5,2.801,0.5
	c0.486,0,0.898,0.168,1.233,0.503S4.537,1.75,4.537,2.236c0,0.487-0.168,0.898-0.503,1.233C3.699,3.804,3.287,3.972,2.801,3.972
	C2.314,3.973,1.903,3.805,1.568,3.47z M4.281,15.438h-2.96V4.821h2.96V15.438z M17.699,10.129c0,1.539-0.533,2.835-1.598,3.887
	c-1.066,1.053-2.404,1.58-4.016,1.58s-2.95-0.527-4.016-1.58c-1.066-1.052-1.598-2.348-1.598-3.887s0.533-2.838,1.598-3.897
	c1.066-1.059,2.404-1.588,4.016-1.588c1.611,0,2.95,0.53,4.016,1.588C17.166,7.291,17.699,8.59,17.699,10.129z M9.451,10.129
	c0,0.868,0.247,1.575,0.74,2.121c0.493,0.546,1.125,0.818,1.894,0.818c0.77,0,1.401-0.272,1.894-0.818s0.74-1.253,0.74-2.121
	s-0.247-1.579-0.74-2.131c-0.493-0.552-1.125-0.829-1.894-0.829c-0.77,0-1.401,0.276-1.894,0.829
	C9.698,8.551,9.451,9.261,9.451,10.129z M25.473,7.426c-0.882,0-1.539,0.313-1.973,0.937c-0.434,0.625-0.651,1.45-0.651,2.476v4.599
	h-2.96V4.821h2.96v1.401c0.381-0.434,0.858-0.802,1.431-1.105c0.572-0.302,1.154-0.46,1.746-0.474l0.021,2.782L25.473,7.426z
	 M36.918,15.438h-2.782v-1.283c-0.763,0.96-1.706,1.439-2.831,1.439s-2.07-0.326-2.832-0.977c-0.764-0.651-1.145-1.52-1.145-2.605
	s0.395-1.897,1.184-2.437c0.789-0.539,1.868-0.809,3.236-0.809h2.21V8.707c0-1.131-0.599-1.697-1.796-1.697
	c-0.514,0-1.057,0.102-1.628,0.306c-0.572,0.204-1.056,0.457-1.45,0.76l-1.322-1.914c1.395-1.013,2.986-1.519,4.775-1.519
	c1.289,0,2.341,0.322,3.156,0.967c0.816,0.645,1.224,1.664,1.224,3.059L36.918,15.438L36.918,15.438z M33.939,11.392v-0.513h-1.855
	c-1.184,0-1.775,0.368-1.775,1.105c0,0.382,0.141,0.674,0.424,0.877c0.283,0.205,0.687,0.307,1.213,0.307
	c0.525,0,0.99-0.161,1.391-0.482C33.738,12.363,33.939,11.932,33.939,11.392z M43.874,15.596c-1.256,0-2.378-0.533-3.364-1.599
	s-1.48-2.388-1.48-3.966c0-1.579,0.48-2.871,1.441-3.877c0.961-1.006,2.086-1.509,3.375-1.509c1.288,0,2.34,0.454,3.156,1.362V0.798
	h2.96v14.642h-2.96v-1.401C46.173,15.076,45.13,15.596,43.874,15.596L43.874,15.596z M42.009,10.149
	c0,0.855,0.257,1.556,0.771,2.101c0.513,0.546,1.111,0.818,1.796,0.818c0.684,0,1.266-0.272,1.745-0.818
	c0.48-0.546,0.721-1.25,0.721-2.111c0-0.861-0.24-1.579-0.721-2.151c-0.479-0.572-1.068-0.858-1.766-0.858s-1.296,0.289-1.796,0.868
	S42.009,9.294,42.009,10.149z"/>
<rect x="0.5" y="21" fill="#00649A" width="12" height="3"/>
<rect x="12.5" y="21" fill="#FF625F" width="12" height="3"/>
<rect x="24.5" y="21" fill="#00B975" width="14" height="3"/>
<rect x="38.5" y="21" fill="#00C7F5" width="12" height="3"/>
</svg>
