<svg xmlns="http://www.w3.org/2000/svg" version="1.1" id="svg2" viewBox="0 0 33.1 33.1"><circle id="circle4" r="16.6" cy="16.6" cx="16.6" fill="#E6E6E6"/><circle id="circle14" r="10" cy="16.6" cx="16.6" fill="#7F7F7F"/><circle id="circle16" r="3.8" cy="16.6" cx="16.6" fill="#FFFFFF"/><path fill="#7F7F7F" id="path12" d="M 3.9310345,16.099998 2,16.099998 C 2,8.3758611 8.2758621,2.099999 16,2.099999 l 0,1.9310345 c -6.662069,0 -12.0689655,5.406896 -12.0689655,12.0689645 z"/><path fill="#7F7F7F" id="path12-6" d="m 29.068966,16.099998 1.931034,0 C 31,8.3758614 24.724138,2.0999993 17,2.0999993 l 0,1.9310345 c 6.662069,0 12.068966,5.406896 12.068966,12.0689642 z"/><path fill="#7F7F7F" id="path12-7" d="m 3.931034,17.099999 -1.931034,0 c 0,7.724137 6.275862,13.999999 13.999999,13.999999 l 0,-1.931034 c -6.662068,0 -12.068965,-5.406896 -12.068965,-12.068965 z"/><path fill="#7F7F7F" id="path12-5" d="m 29.068965,17.099998 1.931035,0 c 0,7.724137 -6.275862,14 -14,14 l 0,-1.931035 c 6.662069,0 12.068965,-5.406897 12.068965,-12.068965 z"/></svg>