<svg xmlns="http://www.w3.org/2000/svg" viewBox="0 0 33.1 33.1"><circle fill="#E6E6E6" cx="16.6" cy="16.6" r="16.6"/><path fill="#226398" d="M16.6 31v-2C23.4 29 29 23.4 29 16.6h2C31 24.5 24.5 31 16.6 31z"/><path fill="#3BBB73" d="M16.6 31c-8 0-14.5-6.5-14.5-14.5h2C4.1 23.4 9.7 29 16.6 29v2z"/><path fill="#45C6F8" d="M31 16.6h-2c0-6.9-5.6-12.5-12.5-12.5v-2c8 0 14.5 6.5 14.5 14.5z"/><path fill="#FF615F" d="M4.1 16.6h-2c0-8 6.5-14.5 14.5-14.5v2C9.7 4.1 4.1 9.7 4.1 16.6z"/><circle opacity=".9" fill="#333" cx="16.6" cy="16.6" r="11.7"/><circle fill="#ccc" cx="16.6" cy="16.6" r="3.8"/></svg>