<svg width="500" height="256" viewBox="0 0 500 256" fill="none" xmlns="http://www.w3.org/2000/svg">
<path fill-rule="evenodd" clip-rule="evenodd" d="M0 0H499.2V256H0V0ZM21.3333 21.3333V234.667H477.867V21.3333H21.3333Z" fill="#FF2B6B"/>
<path d="M94.3711 94.9119C90.6841 94.9119 87.5963 93.7137 85.1076 91.3171C82.6189 88.9206 81.3745 85.8788 81.3745 82.1919C81.3745 78.5971 82.6189 75.6014 85.1076 73.2049C87.5963 70.7162 90.6841 69.4718 94.3711 69.4718C97.9659 69.4718 101.008 70.7162 103.496 73.2049C106.077 75.6014 107.368 78.5971 107.368 82.1919C107.368 85.7867 106.077 88.8284 103.496 91.3171C101.008 93.7137 97.9659 94.9119 94.3711 94.9119ZM82.2041 103.761H106.538V170.126H82.2041V103.761Z" fill="black"/>
<path d="M158.016 172.2C149.812 172.2 142.623 170.725 136.447 167.776C130.271 164.734 125.478 160.586 122.068 155.332C118.749 149.986 117.09 143.857 117.09 136.943C117.09 130.03 118.749 123.947 122.068 118.693C125.478 113.347 130.271 109.199 136.447 106.249C142.623 103.208 149.812 101.687 158.016 101.687C166.219 101.687 173.409 103.208 179.585 106.249C185.76 109.199 190.507 113.347 193.825 118.693C197.236 123.947 198.941 130.03 198.941 136.943C198.941 143.857 197.236 149.986 193.825 155.332C190.507 160.586 185.76 164.734 179.585 167.776C173.409 170.725 166.219 172.2 158.016 172.2ZM158.016 153.258C162.901 153.258 166.772 151.83 169.63 148.972C172.579 146.023 174.054 142.013 174.054 136.943C174.054 131.874 172.579 127.91 169.63 125.053C166.772 122.103 162.901 120.629 158.016 120.629C153.13 120.629 149.213 122.103 146.263 125.053C143.406 127.91 141.977 131.874 141.977 136.943C141.977 142.013 143.406 146.023 146.263 148.972C149.213 151.83 153.13 153.258 158.016 153.258Z" fill="black"/>
<path d="M208.564 103.761H232.069V112.056C234.65 109.107 238.291 106.849 242.992 105.282C247.692 103.622 252.9 102.793 258.615 102.793V121.458C252.532 121.458 247.139 122.334 242.438 124.085C237.83 125.836 234.65 128.463 232.898 131.966V170.126H208.564V103.761Z" fill="black"/>
<path d="M284.358 172.2C276.062 172.2 269.333 170.218 264.171 166.255C259.102 162.199 256.567 156.577 256.567 149.387C256.567 141.921 259.01 136.206 263.895 132.243C268.872 128.187 275.97 126.159 285.187 126.159C288.782 126.159 292.377 126.574 295.972 127.403C299.566 128.141 302.654 129.155 305.235 130.445V129.063C305.235 121.965 299.428 118.416 287.814 118.416C279.703 118.416 272.283 119.983 265.554 123.117V106.388C268.504 105.005 272.375 103.899 277.168 103.069C281.961 102.148 286.939 101.687 292.1 101.687C304.452 101.687 313.761 104.175 320.029 109.153C326.389 114.038 329.569 120.905 329.569 129.754V170.126H306.756V164.458C304.267 166.854 301.133 168.744 297.354 170.126C293.575 171.509 289.243 172.2 284.358 172.2ZM291.547 157.268C294.405 157.268 297.078 156.715 299.566 155.609C302.055 154.411 303.945 152.89 305.235 151.046V145.239C301.272 142.566 296.755 141.23 291.686 141.23C288.459 141.23 285.971 141.921 284.219 143.304C282.468 144.686 281.592 146.714 281.592 149.387C281.592 151.876 282.422 153.811 284.081 155.194C285.832 156.577 288.321 157.268 291.547 157.268Z" fill="black"/>
<path d="M373.782 172.2C366.868 172.2 360.739 170.771 355.393 167.914C350.047 164.964 345.899 160.863 342.949 155.609C340 150.263 338.525 144.087 338.525 137.082C338.525 130.169 340 124.039 342.949 118.693C345.899 113.255 350.001 109.061 355.255 106.111C360.601 103.162 366.776 101.687 373.782 101.687C378.39 101.687 382.63 102.332 386.502 103.622C390.373 104.913 393.691 106.756 396.457 109.153V67.9509H420.791V170.126H397.286V163.49C391.11 169.297 383.276 172.2 373.782 172.2ZM380.142 153.397C383.829 153.397 387.147 152.475 390.096 150.631C393.046 148.696 395.166 146.115 396.457 142.889V131.136C395.166 127.91 393.046 125.376 390.096 123.532C387.147 121.596 383.829 120.629 380.142 120.629C375.164 120.629 371.155 122.103 368.113 125.053C365.071 128.003 363.55 132.012 363.55 137.082C363.55 142.151 365.071 146.161 368.113 149.11C371.155 151.968 375.164 153.397 380.142 153.397Z" fill="black"/>
</svg>
