<?xml version="1.0" encoding="UTF-8" standalone="no"?>
<svg
   xmlns:svg="http://www.w3.org/2000/svg"
   xmlns="http://www.w3.org/2000/svg"
   height="64"
   width="64"
   xml:space="preserve"
   viewBox="0 0 64 64"
   y="0px"
   x="0px"
   id="Layer_1"
   version="1.1"><defs
     id="defs4182" /><g
     transform="matrix(0.53395235,0,0,0.53395235,0,-0.07428187)"
     id="g4156"><g
       id="g4158"><circle
         style="fill:#dfdfc0"
         id="circle4160"
         r="60"
         cy="60"
         cx="60" /><g
         id="g4162"><g
           id="g4164"><path
             style="fill:#3ea757"
             id="path4166"
             d="M 60,120 C 27,120 0.2,93.3 0,60.3 l 60,0 0,59.7 z" /><path
             style="fill:#1b497e"
             id="path4168"
             d="M 120,60.3 C 119.8,93.3 93,120 60,120 l 0,0 0,-59.7 0.1,0 59.9,0 z" /><path
             style="fill:#ef4342"
             id="path4170"
             d="m 60,60.3 -60,0 0,-0.2 C 0,60 0,60 0,59.9 0,26.9 26.9,0 60,0 l 0,60.3 z" /><path
             style="fill:#56bfd2"
             id="path4172"
             d="m 60,0 c 0.1,0 0.1,0 0.2,0 33,0.1 59.8,26.9 59.8,60 0,0.1 0,0.2 0,0.3 l 0,0 -59.9,0 -0.1,0 L 60,0 Z" /></g></g><path
         style="fill:#11323b"
         id="path4174"
         d="m 60,104.6 c 24.6,0 44.6,-20 44.6,-44.6 0,-24.6 -20,-44.6 -44.6,-44.6 -24.6,0 -44.6,20 -44.6,44.6 0,24.6 20,44.6 44.6,44.6 z" /><path
         style="fill:#404543;fill-opacity:0.5"
         id="path4176"
         d="m 60,76 c 8.8,0 16,-7.2 16,-16 0,-8.8 -7.2,-16 -16,-16 -8.8,0 -16,7.2 -16,16 0,8.8 7.2,16 16,16 z" /><path
         style="fill:#404543"
         id="path4178"
         d="m 60,67.3 c 4,0 7.3,-3.3 7.3,-7.3 0,-4 -3.3,-7.3 -7.3,-7.3 -4,0 -7.3,3.3 -7.3,7.3 0,4 3.3,7.3 7.3,7.3 z" /></g></g></svg>